<mxfile host="drawio-plugin" modified="2022-01-13T02:00:53.705Z" agent="5.0 (Macintosh; Intel Mac OS X 11_5_2) AppleWebKit/537.36 (KHTML, like Gecko) Chrome/89.0.4389.90 Safari/537.36" etag="jzM03InYVWlNyvETyQx_" version="14.7.4" type="embed"><diagram id="23iRSUPoRavnBvh4doch" name="Page-1"><mxGraphModel dx="804" dy="532" grid="1" gridSize="10" guides="1" tooltips="1" connect="1" arrows="1" fold="1" page="1" pageScale="1" pageWidth="827" pageHeight="1169" math="0" shadow="0"><root><mxCell id="0"/><mxCell id="1" parent="0"/><mxCell id="2" value="AngryState" style="swimlane;fontStyle=1;align=center;verticalAlign=top;childLayout=stackLayout;horizontal=1;startSize=26;horizontalStack=0;resizeParent=1;resizeParentMax=0;resizeLast=0;collapsible=1;marginBottom=0;" vertex="1" parent="1"><mxGeometry x="50" y="250" width="160" height="112" as="geometry"/></mxCell><mxCell id="3" value="+ mammoth: Mammoth" style="text;strokeColor=none;fillColor=none;align=left;verticalAlign=top;spacingLeft=4;spacingRight=4;overflow=hidden;rotatable=0;points=[[0,0.5],[1,0.5]];portConstraint=eastwest;" vertex="1" parent="2"><mxGeometry y="26" width="160" height="26" as="geometry"/></mxCell><mxCell id="4" value="" style="line;strokeWidth=1;fillColor=none;align=left;verticalAlign=middle;spacingTop=-1;spacingLeft=3;spacingRight=3;rotatable=0;labelPosition=right;points=[];portConstraint=eastwest;" vertex="1" parent="2"><mxGeometry y="52" width="160" height="8" as="geometry"/></mxCell><mxCell id="5" value="+ observe()" style="text;strokeColor=none;fillColor=none;align=left;verticalAlign=top;spacingLeft=4;spacingRight=4;overflow=hidden;rotatable=0;points=[[0,0.5],[1,0.5]];portConstraint=eastwest;" vertex="1" parent="2"><mxGeometry y="60" width="160" height="26" as="geometry"/></mxCell><mxCell id="6" value="+ onEnterState()" style="text;strokeColor=none;fillColor=none;align=left;verticalAlign=top;spacingLeft=4;spacingRight=4;overflow=hidden;rotatable=0;points=[[0,0.5],[1,0.5]];portConstraint=eastwest;" vertex="1" parent="2"><mxGeometry y="86" width="160" height="26" as="geometry"/></mxCell><mxCell id="7" value="PeacefulState" style="swimlane;fontStyle=1;align=center;verticalAlign=top;childLayout=stackLayout;horizontal=1;startSize=26;horizontalStack=0;resizeParent=1;resizeParentMax=0;resizeLast=0;collapsible=1;marginBottom=0;" vertex="1" parent="1"><mxGeometry x="430" y="250" width="160" height="112" as="geometry"/></mxCell><mxCell id="8" value="+ mammoth: Mammoth" style="text;strokeColor=none;fillColor=none;align=left;verticalAlign=top;spacingLeft=4;spacingRight=4;overflow=hidden;rotatable=0;points=[[0,0.5],[1,0.5]];portConstraint=eastwest;" vertex="1" parent="7"><mxGeometry y="26" width="160" height="26" as="geometry"/></mxCell><mxCell id="9" value="" style="line;strokeWidth=1;fillColor=none;align=left;verticalAlign=middle;spacingTop=-1;spacingLeft=3;spacingRight=3;rotatable=0;labelPosition=right;points=[];portConstraint=eastwest;" vertex="1" parent="7"><mxGeometry y="52" width="160" height="8" as="geometry"/></mxCell><mxCell id="10" value="+ observe()" style="text;strokeColor=none;fillColor=none;align=left;verticalAlign=top;spacingLeft=4;spacingRight=4;overflow=hidden;rotatable=0;points=[[0,0.5],[1,0.5]];portConstraint=eastwest;" vertex="1" parent="7"><mxGeometry y="60" width="160" height="26" as="geometry"/></mxCell><mxCell id="11" value="+ onEnterState()" style="text;strokeColor=none;fillColor=none;align=left;verticalAlign=top;spacingLeft=4;spacingRight=4;overflow=hidden;rotatable=0;points=[[0,0.5],[1,0.5]];portConstraint=eastwest;" vertex="1" parent="7"><mxGeometry y="86" width="160" height="26" as="geometry"/></mxCell><mxCell id="12" value="&lt;p style=&quot;margin: 0px ; margin-top: 4px ; text-align: center&quot;&gt;&lt;i&gt;&amp;lt;&amp;lt;Interface&amp;gt;&amp;gt;&lt;/i&gt;&lt;br&gt;&lt;b&gt;State&lt;/b&gt;&lt;/p&gt;&lt;hr size=&quot;1&quot;&gt;&lt;p style=&quot;margin: 0px ; margin-left: 4px&quot;&gt;&lt;span&gt;+ observe()&lt;/span&gt;&lt;br&gt;&lt;/p&gt;&lt;p style=&quot;margin: 0px ; margin-left: 4px&quot;&gt;+ onEnterState()&lt;/p&gt;" style="verticalAlign=top;align=left;overflow=fill;fontSize=12;fontFamily=Helvetica;html=1;" vertex="1" parent="1"><mxGeometry x="224" y="90" width="190" height="80" as="geometry"/></mxCell><mxCell id="14" value="" style="endArrow=block;dashed=1;endFill=0;endSize=12;html=1;exitX=0.5;exitY=0;exitDx=0;exitDy=0;entryX=0;entryY=0.5;entryDx=0;entryDy=0;" edge="1" parent="1" source="2" target="12"><mxGeometry width="160" relative="1" as="geometry"><mxPoint x="280" y="230" as="sourcePoint"/><mxPoint x="440" y="230" as="targetPoint"/><Array as="points"><mxPoint x="130" y="130"/></Array></mxGeometry></mxCell><mxCell id="15" value="" style="endArrow=block;dashed=1;endFill=0;endSize=12;html=1;exitX=0.5;exitY=0;exitDx=0;exitDy=0;entryX=0.995;entryY=0.425;entryDx=0;entryDy=0;entryPerimeter=0;" edge="1" parent="1" source="7" target="12"><mxGeometry width="160" relative="1" as="geometry"><mxPoint x="520" y="140" as="sourcePoint"/><mxPoint x="680" y="140" as="targetPoint"/><Array as="points"><mxPoint x="510" y="124"/></Array></mxGeometry></mxCell><mxCell id="16" value="Mammoth" style="swimlane;fontStyle=1;align=center;verticalAlign=top;childLayout=stackLayout;horizontal=1;startSize=26;horizontalStack=0;resizeParent=1;resizeParentMax=0;resizeLast=0;collapsible=1;marginBottom=0;" vertex="1" parent="1"><mxGeometry x="224" y="460" width="196" height="138" as="geometry"/></mxCell><mxCell id="17" value="+ state: State" style="text;strokeColor=none;fillColor=none;align=left;verticalAlign=top;spacingLeft=4;spacingRight=4;overflow=hidden;rotatable=0;points=[[0,0.5],[1,0.5]];portConstraint=eastwest;" vertex="1" parent="16"><mxGeometry y="26" width="196" height="26" as="geometry"/></mxCell><mxCell id="18" value="" style="line;strokeWidth=1;fillColor=none;align=left;verticalAlign=middle;spacingTop=-1;spacingLeft=3;spacingRight=3;rotatable=0;labelPosition=right;points=[];portConstraint=eastwest;" vertex="1" parent="16"><mxGeometry y="52" width="196" height="8" as="geometry"/></mxCell><mxCell id="19" value="+ changeStateTo(state): State" style="text;strokeColor=none;fillColor=none;align=left;verticalAlign=top;spacingLeft=4;spacingRight=4;overflow=hidden;rotatable=0;points=[[0,0.5],[1,0.5]];portConstraint=eastwest;" vertex="1" parent="16"><mxGeometry y="60" width="196" height="26" as="geometry"/></mxCell><mxCell id="20" value="+ observe()" style="text;strokeColor=none;fillColor=none;align=left;verticalAlign=top;spacingLeft=4;spacingRight=4;overflow=hidden;rotatable=0;points=[[0,0.5],[1,0.5]];portConstraint=eastwest;" vertex="1" parent="16"><mxGeometry y="86" width="196" height="26" as="geometry"/></mxCell><mxCell id="21" value="+ timePasses()" style="text;strokeColor=none;fillColor=none;align=left;verticalAlign=top;spacingLeft=4;spacingRight=4;overflow=hidden;rotatable=0;points=[[0,0.5],[1,0.5]];portConstraint=eastwest;" vertex="1" parent="16"><mxGeometry y="112" width="196" height="26" as="geometry"/></mxCell><mxCell id="22" value="Use" style="endArrow=open;endSize=12;dashed=1;html=1;exitX=0.438;exitY=1;exitDx=0;exitDy=0;exitPerimeter=0;entryX=0;entryY=0.5;entryDx=0;entryDy=0;" edge="1" parent="1" source="6" target="17"><mxGeometry width="160" relative="1" as="geometry"><mxPoint x="250" y="400" as="sourcePoint"/><mxPoint x="410" y="400" as="targetPoint"/><Array as="points"><mxPoint x="120" y="499"/></Array></mxGeometry></mxCell><mxCell id="23" value="Use" style="endArrow=open;endSize=12;dashed=1;html=1;exitX=0.463;exitY=1;exitDx=0;exitDy=0;exitPerimeter=0;entryX=0.995;entryY=0.769;entryDx=0;entryDy=0;entryPerimeter=0;" edge="1" parent="1" source="11" target="17"><mxGeometry width="160" relative="1" as="geometry"><mxPoint x="530" y="480" as="sourcePoint"/><mxPoint x="690" y="480" as="targetPoint"/><Array as="points"><mxPoint x="504" y="506"/></Array></mxGeometry></mxCell></root></mxGraphModel></diagram></mxfile>